<svg xmlns="http://www.w3.org/2000/svg" viewBox="0 0 32.96 32.63"><defs><style>.cls-1,.cls-2{fill:#2d2d2d;}.cls-2{fill-rule:evenodd;}</style></defs><g id="Layer_2" data-name="Layer 2"><g id="Layer_1-2" data-name="Layer 1"><path class="cls-1" d="M28.69,8.77l-4.5-4.5L8.86,19.6a1.16,1.16,0,0,0-.27.44L6.78,25.47a.57.57,0,0,0,.14.58.55.55,0,0,0,.57.13l5.43-1.81a1.05,1.05,0,0,0,.44-.27L28.69,8.77Zm3.94-5.53a1.12,1.12,0,0,1,0,1.59L30.28,7.18l-4.5-4.5L28.13.33a1.12,1.12,0,0,1,1.59,0l2.91,2.91Z"/><path class="cls-2" d="M0,29.25a3.38,3.38,0,0,0,3.38,3.38H28.13a3.38,3.38,0,0,0,3.37-3.38V15.75a1.13,1.13,0,0,0-2.25,0v13.5a1.13,1.13,0,0,1-1.12,1.13H3.38a1.13,1.13,0,0,1-1.13-1.13V4.5A1.12,1.12,0,0,1,3.38,3.38H18a1.13,1.13,0,1,0,0-2.25H3.38A3.37,3.37,0,0,0,0,4.5Z"/></g></g></svg>